<svg xmlns="http://www.w3.org/2000/svg" xmlns:xlink="http://www.w3.org/1999/xlink" version="1.1" x="0px" y="0px" viewBox="0 0 171 171" enable-background="new 0 0 171 171" xml:space="preserve">
  <style>.style0{fill:	#FFFFFF;}</style>
  <g>
    <path d="M85.5 0C38.3 0 0 38.3 0 85.5C0 132.7 38.3 171 85.5 171c47.2 0 85.5-38.3 85.5-85.5 C171 38.3 132.7 0 85.5 0z M141.6 85.3c-0.2-1.4-1.7-1.9-3-1.9c-1.7 0-3.3 0.8-4.6 2.3c-2 2.3-3.2 6-2.8 9.1c0.2 1.9 1.1 4 3 4 c1.5 0 3.7-2.2 4.5-5.2c0.6-2.2 2.7-3.7 4.2-3.7c0.9 0 1.5 0.5 1.6 1.3c0.1 0.4-0.1 1.2-0.9 4.8c-0.3 1.3-0.4 2.6-0.3 3.6 c0.3 2.2 1.3 3.5 2.1 4.2c0.4 0.3 0.6 0.7 0.6 0.9c0 0.3-0.1 0.6-0.3 0.8c-0.2 0.3-0.6 0.4-1 0.4c-0.2 0-0.5 0-0.8-0.2 c-3.9-1.6-5.3-4.2-5.7-6.2c-1.4 1.7-3.3 2.7-5.2 2.7c-3.5 0-6.7-3-7.1-6.7c-0.2-1.4 0-3 0.4-4.6c-1.3 0.7-2.7 1.2-3.9 1.2 c-0.4 0-0.8 0-1.2-0.1c-3 4.4-6.4 7.8-9.2 9.3c-1 0.6-2.1 0.9-2.9 0.9c-0.8 0-1.4-0.3-1.6-0.7c-0.6-1-1.1-2.6-1.3-4.8 c-3.5 3.7-8.2 5.5-10.4 5.5c-2.5 0-4.1-1.5-4.4-4.1c-0.1-0.8-0.1-1.8 0.1-2.8c0.5-3.2 1.4-5.7 2.1-7.4c0.4-1.1 0.7-1.9 0.6-2.2 c0-0.1-0.1-0.3-0.3-0.3c-0.8 0-2.6 1.4-4.4 3.4c-2 2.3-3.5 4.7-3.9 6.4l-0.7 3.2c-0.4 2.2-2.6 3.8-4.3 3.8c-0.8 0-1.4-0.5-1.5-1.3 c0-0.3 0-0.7 0.1-1.1l0.3-1.4c-3 2.2-6.3 3.7-7.9 3.7c-2 0-3.3-1-3.9-2.7c-1.4 1.8-3.3 2.7-5.3 2.7c-2.5 0-5-1.6-6.3-4.1 c-1.9 2.1-3.9 3.8-6 5.2c-4.4 2.8-8.2 4.1-12.2 4.1c-5.1 0-9-3.2-10.1-4.2c-2.7-2.5-4.6-6.5-5.1-10.9C21.2 79.8 29 64.2 40 57.5 c2.5-1.5 5.5-2.4 8.3-2.4c5.2 0 9.6 3.7 10.3 8.7c0.6 4.5-1.5 8.1-5.9 10.3c-1.3 0.6-2.3 1-3.1 1c-0.6 0-0.9-0.2-1-0.4 c-0.3-0.5-0.1-1.2 0.4-1.6c4.4-3.7 4.4-6.7 3.9-10.8c-0.3-2.6-2-4.4-4-4.4c-2.8 0-6.1 2-9.3 5.7c-5.8 6.5-11 18-9.8 27.5 c0.7 5.8 4.3 11.7 10.8 11.7c2.2 0 4.6-0.6 6.9-1.7c3.8-2 6-3.5 8-5.9c-0.3-3.5 1.2-7.5 3.9-10.4c2.6-2.8 6-4.3 9.6-4.3 c4 0 6.7 1.7 7.1 4.4c0.2 1.3-0.1 2.3-0.8 3.1c-0.9 1-2.4 1.3-3.1 1.3c-1 0-2.7-0.3-2.9-1.3c-0.1-0.5 0.4-0.7 0.8-0.9 c0.6-0.3 1.3-0.6 1.1-1.9c-0.2-1.7-2.3-1.8-3-1.8c-1.7 0-3.2 0.8-4.5 2.2c-2.3 2.6-3.2 6.7-2.9 9.3c0.2 1.8 1.2 3.9 3 3.9 c1.5 0 3.6-2.1 4.4-5.2c0.5-2.2 2.6-3.7 4.2-3.7c0.9 0 1.5 0.4 1.6 1.3c0 0.3 0 0.7-0.1 1.1c0 0.3-0.1 0.7-0.2 1.2 c-0.3 1.3-0.6 3-0.6 3.5c0 0.2 0.1 1.2 1.2 1.2c0.7 0 3.6-1.5 6.2-3.8c0.9-4.4 1.9-9.5 1.9-9.9c0.3-1.8 1-3.6 4.6-3.6 c0.9 0 1.4 0.5 1.5 1.3c0 0.3 0 0.7-0.1 1.1l-0.9 3.9c3-3.8 7.6-6.7 10.5-6.7c1.4 0 2.3 0.8 2.5 2.1c0.1 0.8-0.1 2-0.6 3.4 c-1 2.7-2.2 6.9-2.9 10.6c-0.1 0.4-0.1 0.9 0.3 1.3c0.2 0.3 0.6 0.5 1.1 0.5c1 0 4.6-1.2 7.6-5.2c0-0.6 0-1.1 0-1.6 c0-3.3 0.3-5.6 0.8-7.3c0.6-1.8 3-3.8 4.7-3.8c0.9 0 1.5 0.5 1.5 1.4c0 0.3-0.1 0.7-0.2 1.1c-1.1 3.2-1.6 6.2-1.6 9 c0 1.7 0.4 4.4 0.7 5.7c0.1 0.3 0.1 0.5 0.3 0.5c0.4 0 3.7-3.1 6.2-7.2c-2.1-1.4-3.3-4-3.3-7c0-5.2 3.1-8 6.2-8 c2.3 0 4.7 1.6 4.7 5.3c0 1.9-0.7 4.2-2 6.9c0.2 0 0.4 0 0.5 0c1.6 0 3.1-0.7 4-1.8c0.4-0.4 0.7-0.7 1-0.9c2.7-3.3 6.3-5 10.2-5 c4 0 6.7 1.7 7.1 4.4c0.2 1.3-0.1 2.4-0.8 3.2c-0.9 1.1-2.4 1.3-3.1 1.3c-1.3 0-2.8-0.3-2.9-1.3c-0.1-0.5 0.3-0.6 0.8-0.8 C141 86.9 141.7 86.6 141.6 85.3z" class="style0"/>
    <path d="M119.3 78.9c-0.8 0-1.2 1.2-1.2 2.3c0 1.8 0.8 3.8 2.1 5.2c0.5-1.4 0.7-2.6 0.7-3.9 C120.9 79.9 119.9 78.9 119.3 78.9z" class="style0"/>
  </g>
</svg>
